<svg width="2500" height="725" viewBox="0 0 2500 725" fill="none" xmlns="http://www.w3.org/2000/svg">
<path d="M0 135.142H87.168V328.804H271.011V135.142H358.291V610.522H271.011V412.793H87.168V610.522H0V135.142ZM634.438 455.684C634.438 495.478 602.017 527.861 562.231 527.861C522.432 527.861 490.029 495.478 490.029 455.684V251.016H407.363V455.684C407.363 541.069 476.841 610.522 562.231 610.522C647.603 610.522 717.075 541.069 717.075 455.684V251.016H634.438V455.684ZM947.847 253.413C906.841 253.413 878.218 265.312 850.576 292.446V135.142H767.642V426.67C767.642 535.791 846.538 610.522 935.176 610.522C1033.72 610.522 1120.05 534.458 1120.05 431.973C1120.05 330.786 1040.44 253.413 947.847 253.413ZM949.907 533.799C893.711 533.799 850.737 486.865 850.737 431.973C850.737 377.07 893.711 330.122 949.907 330.122C997.524 330.122 1040.52 377.07 1040.52 431.973C1040.52 486.865 997.524 533.799 949.907 533.799ZM1259.35 274.307C1259.35 232.617 1287.12 219.399 1317.53 219.399C1342.02 219.399 1374.41 237.915 1395.56 260.405L1449.77 196.924C1422.68 160.557 1367.8 135.42 1322.83 135.42C1232.88 135.42 1168.07 187.666 1168.07 274.307C1168.07 435 1365.81 384.063 1365.81 474.023C1365.81 501.768 1338.71 526.26 1307.64 526.26C1258.69 526.26 1242.81 502.451 1220.33 477.314L1160.14 539.468C1198.52 586.426 1246.12 610.244 1303 610.244C1388.3 610.244 1457.08 557.339 1457.08 474.663C1457.08 296.118 1259.35 351.675 1259.35 274.307ZM1675.41 248.755C1586.78 248.755 1507.88 323.442 1507.88 432.588V724.868H1590.81V566.816C1618.45 593.931 1647.06 605.85 1688.08 605.85C1780.67 605.85 1860.29 528.486 1860.29 427.3C1860.29 324.8 1773.93 248.755 1675.41 248.755ZM1690.15 529.15C1633.96 529.15 1590.98 482.153 1590.98 427.3C1590.98 372.397 1633.96 325.449 1690.15 325.449C1737.75 325.449 1780.76 372.397 1780.76 427.3C1780.76 482.153 1737.75 529.15 1690.15 529.15ZM2470.75 533.799C2421.83 533.799 2407.94 512.646 2407.94 480.229V336.733H2483.98V263.999H2407.94V168.101L2323.98 205.786V498.086C2323.98 572.822 2375.55 610.522 2446.27 610.522C2456.86 610.522 2471.42 609.839 2479.37 607.881L2499.87 532.5C2490.61 533.14 2480.03 533.799 2470.75 533.799Z" fill="#45535E"/>
<path d="M2252.04 340.962C2236.14 313.608 2213.78 291.68 2185.82 275.171C2164.93 263.008 2143.26 255.288 2118.85 251.973V165.059C2143.26 154.692 2158.41 131.748 2158.41 104.98C2158.41 68.4961 2129.16 38.9307 2092.7 38.9307C2056.22 38.9307 2026.45 68.4961 2026.45 104.98C2026.45 131.748 2040.72 154.692 2065.14 165.059V252.012C2045.61 254.834 2025.35 260.923 2006.86 270.278C1969.08 241.587 1845.2 147.461 1772.73 92.4854C1774.45 86.2891 1775.78 79.9023 1775.78 73.1641C1775.78 32.7539 1743.05 0 1702.63 0C1662.2 0 1629.49 32.7539 1629.49 73.1641C1629.49 113.569 1662.24 146.333 1702.66 146.333C1716.45 146.333 1729.2 142.3 1740.21 135.669L1755.5 147.271L1965.64 298.677C1954.53 308.877 1944.18 320.479 1935.91 333.496C1919.14 360.034 1908.89 389.233 1908.89 421.084V427.729C1908.89 450.088 1913.13 471.196 1920.37 491.025C1926.74 508.34 1936.06 524.082 1947.6 538.315L1877.86 608.228C1867.75 604.466 1856.77 603.694 1846.24 606.004C1835.7 608.314 1826.06 613.609 1818.45 621.255C1813.19 626.495 1809.01 632.728 1806.17 639.592C1803.33 646.457 1801.88 653.816 1801.91 661.245C1801.91 676.348 1807.8 690.542 1818.48 701.221C1823.72 706.49 1829.95 710.669 1836.81 713.513C1843.67 716.358 1851.03 717.813 1858.46 717.793C1865.89 717.812 1873.25 716.357 1880.12 713.512C1886.98 710.668 1893.22 706.49 1898.46 701.221C1903.72 695.981 1907.89 689.75 1910.73 682.889C1913.57 676.028 1915.03 668.671 1915.01 661.245C1915.01 655.4 1914.11 649.697 1912.41 644.277L1984.49 572.183C1994.38 579.009 2005.05 584.756 2016.52 589.712C2039.16 599.497 2064.14 605.459 2091.47 605.459H2096.48C2126.71 605.459 2155.22 598.359 2182.02 583.838C2210.26 568.491 2232.37 547.505 2249.07 520.713C2265.85 493.848 2275.1 464.165 2275.1 431.509V429.878C2275.1 397.754 2267.66 368.115 2252.04 340.962ZM2163.96 492.197C2144.4 513.94 2121.91 527.334 2096.48 527.334H2092.29C2077.77 527.334 2063.57 523.32 2049.66 516.021C2033.99 507.983 2022.08 496.519 2012.32 482.002C2002.25 467.754 1996.78 452.197 1996.78 435.703V430.693C1996.78 414.478 1999.89 399.102 2007.73 384.58C2016.11 368.706 2027.44 356.362 2042.5 346.548C2057.28 336.802 2073.07 332.021 2090.66 332.021H2092.29C2108.24 332.021 2123.34 335.166 2137.59 342.456C2152.1 350.23 2163.96 360.85 2173.16 374.819C2182.09 388.794 2187.4 403.867 2189.11 420.288C2189.38 423.701 2189.52 427.197 2189.52 430.537C2189.52 452.822 2181 473.462 2163.96 492.197Z" fill="#F8761F"/>
</svg>
