<svg width="378" height="368" viewBox="0 0 378 368" fill="none" xmlns="http://www.w3.org/2000/svg">
<path d="M176.622 0.0990301C175.809 0.170965 173.222 0.422736 170.894 0.602573C117.206 5.3143 66.9167 33.5127 35.0657 76.8533C17.3296 100.951 5.98592 128.287 1.69971 157.24C0.184751 167.347 0 170.332 0 184.036C0 197.74 0.184751 200.725 1.69971 210.832C11.9718 279.925 62.4827 337.976 130.988 359.485C143.256 363.333 156.188 365.959 170.894 367.541C176.622 368.153 201.378 368.153 207.106 367.541C232.49 364.808 253.995 358.693 275.205 348.155C278.456 346.536 279.084 346.105 278.641 345.745C278.345 345.529 264.489 327.438 247.862 305.57L217.636 265.826L179.762 211.263C158.923 181.267 141.778 156.737 141.63 156.737C141.482 156.701 141.334 180.943 141.26 210.544C141.15 262.373 141.113 264.459 140.448 265.682C139.487 267.444 138.748 268.164 137.196 268.955C136.013 269.53 134.979 269.638 129.399 269.638H123.007L121.307 268.595C120.199 267.912 119.386 267.013 118.832 265.97L118.056 264.351L118.13 192.237L118.24 120.086L119.386 118.683C119.977 117.928 121.233 116.957 122.12 116.489C123.635 115.77 124.226 115.698 130.619 115.698C138.157 115.698 139.413 115.986 141.371 118.072C141.926 118.647 162.433 148.716 186.968 184.935C211.503 221.154 245.053 270.609 261.533 294.887L291.463 339.019L292.978 338.048C306.391 329.56 320.579 317.475 331.812 304.886C355.719 278.163 371.127 245.576 376.3 210.832C377.815 200.725 378 197.74 378 184.036C378 170.332 377.815 167.347 376.3 157.24C366.028 88.1471 315.517 30.0958 247.012 8.58732C234.929 4.77478 222.07 2.14917 207.66 0.566606C204.113 0.206932 179.689 -0.188709 176.622 0.0990301ZM253.995 111.382C255.769 112.245 257.21 113.9 257.727 115.626C258.023 116.561 258.097 136.559 258.023 181.626L257.912 246.295L246.199 228.815L234.449 211.335V164.326C234.449 133.934 234.596 116.849 234.818 116.022C235.409 114.008 236.703 112.425 238.476 111.49C239.991 110.735 240.545 110.663 246.347 110.663C251.815 110.663 252.776 110.735 253.995 111.382Z" fill="black"/>
</svg>
