<svg width="1029" height="291" viewBox="0 0 1029 291" fill="none" xmlns="http://www.w3.org/2000/svg">
<path d="M945.886 103.164C943.383 103.164 940.949 103.681 938.794 104.901L870.622 144.311C866.21 146.857 863.529 151.662 863.529 156.775V235.452C863.529 240.561 866.21 245.359 870.622 247.911L888.426 258.199C897.076 262.467 900.264 262.4 904.201 262.4C917.008 262.4 924.32 254.621 924.32 241.102V163.438C924.32 162.341 923.371 161.555 922.295 161.555H913.755C912.66 161.555 911.729 162.341 911.729 163.438V241.102C911.729 247.093 905.493 253.121 895.374 248.056L876.846 237.189C876.19 236.833 875.688 236.203 875.688 235.452V156.773C875.688 156.028 876.184 155.268 876.846 154.89L944.874 115.627C945.181 115.447 945.531 115.352 945.887 115.352C946.243 115.352 946.592 115.447 946.9 115.627L1014.93 154.892C1015.58 155.282 1016.09 156.005 1016.09 156.777V235.454C1016.09 236.205 1015.71 236.974 1015.07 237.336L946.9 276.601C946.316 276.95 945.511 276.95 944.874 276.601L927.36 266.17C927.093 266.025 926.795 265.949 926.492 265.949C926.189 265.949 925.89 266.025 925.624 266.17C920.79 268.913 919.88 269.231 915.346 270.806C914.23 271.196 912.534 271.803 915.925 273.706L938.794 287.178C940.951 288.423 943.398 289.074 945.888 289.063C948.377 289.078 950.825 288.428 952.979 287.18L1021.15 247.913C1025.56 245.345 1028.24 240.563 1028.24 235.454V156.775C1028.24 151.664 1025.56 146.867 1021.15 144.315L952.979 104.905C950.842 103.683 948.392 103.166 945.888 103.166L945.886 103.164Z" fill="#83CD29"/>
<path d="M964.124 159.383C944.711 159.383 933.15 167.653 933.15 181.407C933.15 196.326 944.624 200.426 963.257 202.27C985.546 204.455 987.282 207.732 987.282 212.124C987.282 219.742 981.215 222.99 966.876 222.99C948.857 222.99 944.898 218.487 943.572 209.516C943.415 208.553 942.673 207.776 941.689 207.776H932.86C931.774 207.776 930.834 208.714 930.834 209.806C930.834 221.291 937.075 234.872 966.876 234.872C988.447 234.872 1000.89 226.396 1000.89 211.544C1000.89 196.823 990.839 192.87 969.913 190.101C948.771 187.3 946.755 185.928 946.755 180.972C946.755 176.88 948.465 171.407 964.124 171.407C978.113 171.407 983.283 174.428 985.401 183.87C985.587 184.756 986.367 185.463 987.282 185.463H996.114C996.657 185.463 997.184 185.129 997.56 184.738C997.93 184.321 998.192 183.852 998.14 183.29C996.772 167.031 985.941 159.383 964.124 159.383Z" fill="#83CD29"/>
<path d="M545.097 0.000935512C544.335 0.00144151 543.587 0.200633 542.925 0.578894C542.267 0.964074 541.721 1.5141 541.341 2.17479C540.96 2.83548 540.758 3.58403 540.754 4.3467V115.19C540.754 116.277 540.249 117.252 539.308 117.798C538.846 118.067 538.322 118.209 537.788 118.209C537.254 118.209 536.729 118.067 536.268 117.798L518.175 107.366C516.855 106.602 515.357 106.199 513.833 106.199C512.308 106.199 510.81 106.602 509.49 107.366L437.264 149.094C434.565 150.655 432.923 153.653 432.923 156.775V240.232C432.923 243.35 434.567 246.205 437.264 247.766L509.49 289.496C510.809 290.262 512.307 290.666 513.833 290.666C515.358 290.666 516.856 290.262 518.175 289.496L590.401 247.766C591.723 247.004 592.821 245.906 593.584 244.583C594.346 243.261 594.747 241.76 594.744 240.232V32.1673C594.742 30.6042 594.326 29.0696 593.538 27.7202C592.749 26.3708 591.618 25.255 590.258 24.4866L547.268 0.433901C546.594 0.0573217 545.846 -0.00913345 545.097 0.000935512ZM80.4759 104.178C79.0999 104.233 77.8044 104.475 76.5692 105.191L4.34128 146.921C3.01821 147.682 1.91973 148.78 1.1573 150.103C0.394868 151.426 -0.00438965 152.927 3.64026e-05 154.455L0.144879 266.46C0.144879 268.017 0.947545 269.465 2.3155 270.226C2.97133 270.62 3.72202 270.829 4.48713 270.829C5.25223 270.829 6.00292 270.62 6.65875 270.226L49.5019 245.595C52.2156 243.98 53.9879 241.173 53.9879 238.059V185.753C53.9879 182.632 55.6275 179.768 58.3312 178.218L76.5672 167.641C77.8857 166.874 79.3853 166.473 80.9105 166.481C82.3991 166.481 83.928 166.854 85.2517 167.641L103.49 178.218C104.814 178.978 105.914 180.075 106.676 181.399C107.439 182.723 107.838 184.225 107.833 185.753V238.057C107.833 241.171 109.623 243.998 112.319 245.593L155.162 270.226C155.818 270.62 156.569 270.829 157.334 270.829C158.099 270.829 158.85 270.62 159.505 270.226C160.166 269.843 160.714 269.294 161.095 268.633C161.476 267.971 161.677 267.222 161.678 266.458L161.819 154.455C161.827 152.927 161.43 151.424 160.667 150.1C159.904 148.776 158.804 147.679 157.478 146.921L85.2517 105.191C84.0306 104.475 82.7311 104.235 81.345 104.178H80.4759ZM729.497 105.191C727.989 105.191 726.51 105.574 725.156 106.351L652.93 148.081C651.608 148.843 650.51 149.941 649.747 151.263C648.984 152.586 648.584 154.087 648.587 155.615V239.072C648.587 242.212 650.353 245.055 653.073 246.608L724.722 287.468C727.367 288.978 730.598 289.093 733.261 287.609L776.684 263.413C778.062 262.648 778.993 261.218 778.999 259.647C779.007 258.882 778.809 258.13 778.428 257.467C778.046 256.804 777.494 256.256 776.829 255.88L704.168 214.15C702.808 213.372 701.853 211.8 701.853 210.237V184.158C701.853 182.598 702.818 181.168 704.168 180.39L726.748 167.349C727.408 166.967 728.157 166.765 728.919 166.765C729.682 166.765 730.431 166.967 731.091 167.349L753.668 180.39C754.33 180.771 754.879 181.32 755.26 181.981C755.642 182.642 755.842 183.393 755.841 184.156V204.731C755.839 205.495 756.038 206.245 756.42 206.907C756.801 207.568 757.35 208.117 758.011 208.497C759.365 209.28 761.003 209.282 762.353 208.497L805.632 183.29C806.952 182.526 808.049 181.427 808.811 180.104C809.573 178.782 809.975 177.282 809.975 175.755V155.617C809.975 152.505 808.326 149.644 805.632 148.081L733.841 106.351C732.521 105.587 731.022 105.186 729.497 105.191ZM513.542 167.496C513.92 167.496 514.363 167.589 514.701 167.784L539.453 182.128C540.124 182.517 540.611 183.236 540.611 184.011V212.7C540.611 213.479 540.129 214.196 539.453 214.585L514.701 228.929C514.37 229.118 513.996 229.217 513.615 229.217C513.235 229.217 512.861 229.118 512.53 228.929L487.78 214.585C487.106 214.194 486.621 213.479 486.621 212.7V184.011C486.621 183.234 487.108 182.521 487.78 182.128L512.53 167.786C512.834 167.597 513.186 167.497 513.544 167.498L513.542 167.496Z" fill="#404137"/>
<path d="M297.443 104.756C295.939 104.756 294.45 105.139 293.102 105.916L220.876 147.501C218.174 149.058 216.533 152.062 216.533 155.18V238.637C216.533 241.759 218.177 244.61 220.876 246.173L293.102 287.901C294.421 288.668 295.919 289.072 297.444 289.072C298.97 289.072 300.468 288.668 301.787 287.901L374.013 246.173C375.335 245.411 376.433 244.312 377.195 242.989C377.957 241.666 378.357 240.165 378.354 238.637V155.18C378.354 152.058 376.712 149.058 374.013 147.501L301.787 105.916C300.466 105.153 298.968 104.753 297.443 104.756ZM729.353 179.233C729.065 179.233 728.745 179.233 728.486 179.378L714.591 187.491C714.332 187.635 714.115 187.845 713.962 188.1C713.81 188.354 713.727 188.644 713.722 188.941V204.878C713.722 205.478 714.068 206.028 714.591 206.328L728.486 214.297C729.007 214.599 729.562 214.599 730.077 214.297L743.972 206.326C744.23 206.181 744.446 205.971 744.598 205.718C744.75 205.464 744.834 205.174 744.841 204.878V188.939C744.834 188.643 744.75 188.354 744.598 188.1C744.446 187.846 744.23 187.636 743.972 187.491L730.077 179.376C729.819 179.224 729.642 179.233 729.353 179.233Z" fill="#83CD29"/>
</svg>
