<svg width="421" height="354" viewBox="0 0 421 354" fill="none" xmlns="http://www.w3.org/2000/svg">
<path d="M421 177.041C421 150.707 386.074 125.751 332.527 110.276C344.884 58.7434 339.392 17.7446 315.192 4.61845C309.614 1.53948 303.093 0.0810242 295.97 0.0810242V18.1497C299.917 18.1497 303.093 18.8789 305.753 20.2564C317.423 26.5763 322.486 50.6409 318.539 81.5926C317.595 89.209 316.05 97.2305 314.162 105.414C297.343 101.525 278.979 98.5269 259.671 96.5823C248.086 81.5926 236.072 67.9803 223.973 56.0696C251.948 31.5189 278.207 18.0687 296.056 18.0687V0C272.457 0 241.564 15.881 210.328 43.4296C179.092 16.043 148.2 0.324103 124.601 0.324103V18.3928C142.364 18.3928 168.709 31.762 196.684 56.1506C184.67 68.0613 172.656 81.5926 161.243 96.5823C141.849 98.5269 123.485 101.525 106.666 105.495C104.692 97.3925 103.233 89.5331 102.204 81.9977C98.1704 51.046 103.148 26.9815 114.732 20.5805C117.307 19.122 120.653 18.4738 124.601 18.4738V0.405127C117.393 0.405127 110.871 1.86358 105.207 4.94255C81.0936 18.0687 75.6873 58.9865 88.1303 110.357C34.7544 125.913 0 150.788 0 177.041C0 203.374 34.926 228.33 88.4735 243.805C76.1164 295.338 81.6084 336.336 105.808 349.463C111.386 352.542 117.907 354 125.116 354C148.714 354 179.607 338.119 210.843 310.57C242.079 337.957 272.972 353.676 296.571 353.676C303.779 353.676 310.301 352.217 315.965 349.138C340.078 336.012 345.484 295.095 333.041 243.724C386.246 228.249 421 203.293 421 177.041ZM309.271 122.997C306.096 133.449 302.149 144.225 297.686 155.002C294.168 148.52 290.478 142.038 286.445 135.556C282.497 129.073 278.293 122.753 274.088 116.596C286.273 118.297 298.03 120.404 309.271 122.997ZM269.969 209.289C263.275 220.227 256.41 230.598 249.288 240.24C236.501 241.294 223.544 241.861 210.5 241.861C197.542 241.861 184.584 241.294 171.884 240.321C164.762 230.679 157.811 220.389 151.117 209.532C144.595 198.917 138.674 188.141 133.268 177.284C138.588 166.426 144.595 155.569 151.031 144.954C157.725 134.016 164.59 123.645 171.712 114.003C184.499 112.949 197.456 112.382 210.5 112.382C223.458 112.382 236.416 112.949 249.116 113.922C256.238 123.564 263.189 133.854 269.883 144.711C276.405 155.326 282.326 166.102 287.732 176.959C282.326 187.817 276.405 198.674 269.969 209.289ZM297.686 198.755C302.32 209.613 306.268 220.47 309.529 231.003C298.287 233.596 286.445 235.784 274.173 237.485C278.378 231.247 282.583 224.845 286.531 218.282C290.478 211.8 294.168 205.237 297.686 198.755ZM210.672 285.209C202.691 277.431 194.71 268.761 186.816 259.281C194.539 259.605 202.434 259.848 210.414 259.848C218.481 259.848 226.461 259.686 234.27 259.281C226.547 268.761 218.566 277.431 210.672 285.209ZM146.827 237.485C134.641 235.784 122.885 233.677 111.643 231.084C114.818 220.632 118.766 209.856 123.228 199.079C126.746 205.561 130.436 212.043 134.469 218.526C138.503 225.008 142.622 231.328 146.827 237.485ZM210.243 68.8716C218.223 76.65 226.204 85.3198 234.099 94.7997C226.375 94.4756 218.481 94.2325 210.5 94.2325C202.434 94.2325 194.453 94.3946 186.644 94.7997C194.367 85.3198 202.348 76.65 210.243 68.8716ZM146.741 116.596C142.536 122.835 138.331 129.236 134.384 135.799C130.436 142.281 126.746 148.763 123.228 155.245C118.594 144.387 114.647 133.53 111.386 122.997C122.627 120.485 134.469 118.297 146.741 116.596ZM69.0797 218.039C38.7018 205.805 19.0505 189.761 19.0505 177.041C19.0505 164.32 38.7018 148.195 69.0797 136.042C76.4597 133.044 84.5261 130.37 92.85 127.858C97.7413 143.739 104.177 160.268 112.158 177.203C104.263 194.056 97.913 210.504 93.1074 226.304C84.6119 223.792 76.5455 221.037 69.0797 218.039ZM115.247 333.825C103.577 327.505 98.5137 303.44 102.461 272.488C103.405 264.872 104.95 256.851 106.838 248.667C123.657 252.556 142.021 255.554 161.329 257.499C172.914 272.488 184.928 286.101 197.027 298.011C169.052 322.562 142.793 336.012 124.944 336.012C121.083 335.931 117.822 335.202 115.247 333.825ZM318.796 272.083C322.83 303.035 317.852 327.1 306.268 333.501C303.693 334.959 300.347 335.607 296.399 335.607C278.636 335.607 252.291 322.238 224.316 297.849C236.33 285.939 248.344 272.407 259.757 257.418C279.151 255.473 297.515 252.475 314.334 248.505C316.308 256.688 317.852 264.548 318.796 272.083ZM351.835 218.039C344.455 221.037 336.388 223.711 328.064 226.223C323.173 210.342 316.737 193.813 308.756 176.878C316.651 160.025 323.001 143.577 327.807 127.777C336.302 130.289 344.369 133.044 351.92 136.042C382.298 148.276 401.949 164.32 401.949 177.041C401.864 189.761 382.212 205.886 351.835 218.039Z" fill="#61DAFB"/>
<path d="M210.414 214.069C232.073 214.069 249.631 197.491 249.631 177.041C249.631 156.59 232.073 140.012 210.414 140.012C188.755 140.012 171.198 156.59 171.198 177.041C171.198 197.491 188.755 214.069 210.414 214.069Z" fill="#61DAFB"/>
</svg>
