<svg width="492" height="325" viewBox="0 0 492 325" fill="none" xmlns="http://www.w3.org/2000/svg">
<path d="M213.734 4.27741H247.331V62.4064H156.497V321.025L154.09 321.683C150.806 322.561 107.578 322.561 98.2759 321.574L90.8341 320.916V62.4064H0V4.27741L28.7824 3.94837C44.5415 3.72902 85.0338 3.72902 118.741 3.94837C152.448 4.16773 195.129 4.27741 213.734 4.27741ZM470.148 293.606C456.797 307.754 442.46 315.651 418.603 322.122C408.206 324.974 406.455 325.083 383.035 324.974C359.615 324.864 357.755 324.864 346.373 321.903C316.934 314.335 293.186 299.529 276.989 278.58C272.393 272.658 264.841 260.374 264.841 258.838C264.841 258.4 265.936 257.413 267.359 256.754C268.781 256.096 271.736 254.232 274.144 252.806C276.551 251.38 280.929 248.748 283.884 247.213C286.839 245.677 295.375 240.632 302.817 236.135C310.258 231.638 317.044 228.019 317.81 228.019C318.576 228.019 319.999 229.555 321.093 231.419C327.659 242.496 342.981 256.645 353.815 261.471C360.491 264.322 375.265 267.503 382.379 267.503C388.945 267.503 400.983 264.651 407.44 261.69C414.335 258.509 417.837 255.329 421.995 248.967C424.841 244.471 425.169 243.264 425.06 234.709C425.06 226.813 424.622 224.619 422.433 221C416.304 210.909 407.987 205.645 374.28 190.729C339.479 175.264 323.829 166.051 311.134 153.658C301.722 144.445 299.862 141.922 293.952 130.406C286.291 115.6 285.306 110.774 285.197 88.7289C285.088 73.2644 285.416 68.2193 287.057 62.9547C289.356 55.058 296.798 39.8128 300.19 35.9741C307.194 27.7483 309.711 25.2258 314.636 21.1677C329.52 8.88385 352.721 0.767741 374.937 0C377.454 0 385.771 0.438702 393.541 0.987089C415.867 2.8516 431.079 8.33546 445.743 20.0709C456.797 28.8451 473.541 49.4645 471.899 52.2064C470.805 53.8515 427.139 83.0257 424.294 83.9031C422.543 84.4515 421.339 83.7934 418.931 80.9418C404.047 63.0644 398.028 59.2257 383.582 58.3483C373.295 57.6902 367.823 58.8967 360.929 63.5031C353.706 68.3289 350.204 75.6773 350.204 85.8773C350.313 100.793 356.004 107.813 377.016 118.232C390.586 124.922 402.187 130.406 403.062 130.406C404.376 130.406 432.501 144.445 439.834 148.832C473.979 168.903 487.877 189.522 491.489 225.058C494.115 251.819 486.564 276.277 470.148 293.606Z" fill="white"/>
</svg>
