<svg width="2491" height="2491" viewBox="0 0 2491 2491" fill="none" xmlns="http://www.w3.org/2000/svg">
<path d="M176.976 1245C176.976 1667.77 422.655 2033.12 778.931 2206.26L269.447 810.334C208.373 947.099 176.862 1095.22 176.976 1245ZM1966.07 1191.1C1966.07 1059.11 1918.66 967.692 1878 896.546C1823.85 808.566 1773.1 734.062 1773.1 646.082C1773.1 547.898 1847.57 456.5 1952.46 456.5C1957.2 456.5 1961.68 457.086 1966.3 457.359C1776.28 283.264 1523.11 176.976 1245.05 176.976C871.91 176.976 543.63 368.422 352.652 658.395C377.709 659.147 401.32 659.664 421.386 659.664C533.094 659.664 706.027 646.121 706.027 646.121C763.61 642.723 770.396 727.285 712.882 734.101C712.882 734.101 655.016 740.907 590.628 744.276L979.595 1901.19L1213.33 1200.18L1046.92 744.246C989.409 740.878 934.922 734.072 934.922 734.072C877.369 730.693 884.116 642.693 941.669 646.092C941.669 646.092 1118.06 659.645 1223 659.645C1334.71 659.645 1507.65 646.092 1507.65 646.092C1565.26 642.693 1572.04 727.256 1514.51 734.072C1514.51 734.072 1456.52 740.878 1392.25 744.246L1778.24 1892.39L1884.77 1536.39C1930.94 1388.66 1966.08 1282.56 1966.08 1191.11L1966.07 1191.1ZM1263.79 1338.43L943.329 2269.62C1041.3 2298.48 1142.91 2313.13 1245.05 2313.13C1369.42 2313.13 1488.7 2291.63 1599.73 2252.59C1596.77 2247.92 1594.22 2243 1592.13 2237.88L1263.79 1338.43ZM2182.24 732.578C2186.83 766.598 2189.43 803.118 2189.43 842.401C2189.43 950.789 2169.19 1072.62 2108.22 1224.96L1781.97 2168.23C2099.5 1983.07 2313.07 1639.05 2313.07 1245.03C2313.09 1059.33 2265.67 884.712 2182.24 732.578ZM1245.05 0C558.541 0 0 558.502 0 1245C0 1931.59 558.541 2490.07 1245.05 2490.07C1931.53 2490.07 2490.15 1931.59 2490.15 1245C2490.14 558.502 1931.53 0 1245.05 0ZM1245.05 2433C590.032 2433 57.0845 1900.07 57.0845 1245C57.0845 589.983 590.003 57.0845 1245.05 57.0845C1900.05 57.0845 2432.94 589.983 2432.94 1245C2432.94 1900.07 1900.05 2433 1245.05 2433Z" fill="#464342"/>
</svg>
